<svg width="19" height="20" fill="none" xmlns="http://www.w3.org/2000/svg"><path d="M13.864 1.738L12.591.15a.399.399 0 00-.534-.082L9.7 1.64c.756.778 2.89.791 4.163.097zm3.529 4.474a.394.394 0 00-.076-.17l-1.293-1.613c-.592.44-1.157 1.129-1.436 1.783h2.805z" fill="#fff"/><path d="M6.795 5.159c1.326-.887 3.2-.618 4.177.599.115.143.208.296.29.454h2.485c.281-.887.974-1.806 1.776-2.408l-1.15-1.433a7.05 7.05 0 01-.196.12.388.388 0 01-.133.164 4.298 4.298 0 01-2.364.733c-.866 0-1.665-.295-2.2-.866a2.952 2.952 0 01-.452-.43L2.86 6.212h2.988a2.84 2.84 0 01.948-1.053z" fill="#fff"/><path d="M7.239 5.824a2.131 2.131 0 00-.436.388h.592a1.104 1.104 0 011.54-.224.388.388 0 01.137.224h1.23c-.734-.858-2.091-1.038-3.063-.388zm11.314 5.856H15.31c-1.3 0-2.36 1.06-2.36 2.36a2.36 2.36 0 002.36 2.356h3.244c.22 0 .4-.18.4-.4V12.08c0-.22-.18-.4-.4-.4z" fill="#fff"/><path d="M17.46 7.012H1.886c-.82 0-1.492.668-1.492 1.492v10.004c0 .824.672 1.492 1.492 1.492H17.46c.825 0 1.492-.668 1.492-1.492v-1.386a1.178 1.178 0 01-.4.074H15.31a3.161 3.161 0 01-3.16-3.156 3.164 3.164 0 013.16-3.16h3.243c.141 0 .275.029.4.073v-2.45c0-.823-.668-1.491-1.492-1.491z" fill="#fff"/></svg>