<svg width="33" height="33" fill="none" xmlns="http://www.w3.org/2000/svg"><circle cx="16.5" cy="16.5" r="16.5" fill="url(#paint0_linear)"/><circle cx="16.5" cy="16.5" r="16.5" fill="url(#paint1_linear)"/><circle cx="16.5" cy="16.5" r="16.5" fill="url(#paint2_linear)"/><path d="M27.624 20.048l-12.709-5.926.657-1.51a1.667 1.667 0 00-.05-1.422l.22.102a.9.9 0 001.204-.473.959.959 0 00-.456-1.246l-6.2-2.89a.9.9 0 00-1.204.472.959.959 0 00.456 1.246l.455.212c-.454.114-.855.43-1.062.905l-2.53 5.814c-.206.475-.168.995.05 1.423l-.22-.102a.9.9 0 00-1.204.472.959.959 0 00.456 1.246l6.2 2.891a.9.9 0 001.204-.472.959.959 0 00-.456-1.246l-.454-.212c.453-.115.855-.43 1.061-.905l.575-1.32 12.709 5.926c.364.17.793.002.957-.375l.704-1.62a.76.76 0 00-.363-.99z" fill="#202020"/><defs><linearGradient id="paint0_linear" x1="16.096" y1="12.375" x2="16.096" y2="35.625" gradientUnits="userSpaceOnUse"><stop stop-color="#FFCD17"/><stop offset="0" stop-color="#FFC800"/><stop offset="1" stop-color="#987F25"/></linearGradient><linearGradient id="paint1_linear" x1="16.096" y1="0" x2="16.096" y2="142.788" gradientUnits="userSpaceOnUse"><stop stop-color="#FFB03A"/><stop offset="0" stop-color="#FFC800"/><stop offset="1" stop-color="#BB570F"/></linearGradient><linearGradient id="paint2_linear" x1="16.096" y1="0" x2="16.096" y2="47.85" gradientUnits="userSpaceOnUse"><stop stop-color="#FFB03A"/><stop offset="0" stop-color="#FFC800"/><stop offset="1" stop-color="#BB570F"/></linearGradient></defs></svg>