<svg width="20" height="14" fill="none" xmlns="http://www.w3.org/2000/svg"><path d="M19.63 11.41L8.628 6.383l.568-1.28a1.389 1.389 0 00-.042-1.208l.19.087c.395.18.864 0 1.042-.4a.807.807 0 00-.395-1.058L4.622.07a.786.786 0 00-1.042.4.807.807 0 00.395 1.058l.393.18c-.392.097-.74.365-.919.768L1.26 7.409c-.179.403-.146.845.042 1.208l-.19-.087a.786.786 0 00-1.042.4.807.807 0 00.395 1.058l5.368 2.453c.396.18.865 0 1.043-.4a.807.807 0 00-.395-1.058l-.394-.18c.393-.097.74-.365.92-.768l.496-1.12 11.004 5.029a.623.623 0 00.829-.319l.61-1.374a.64.64 0 00-.314-.84z" fill="#202020"/></svg>