<svg width="26" height="24" fill="none" xmlns="http://www.w3.org/2000/svg"><path d="M13 .405l2.8 8.616.028.087h9.151l-7.33 5.325-.073.054.028.086 2.8 8.617-7.33-5.326-.074-.053-.073.053-7.33 5.326 2.8-8.617.027-.086-.073-.054-7.33-5.325h9.151l.028-.087L13 .405z" fill="#FFD600"/><path d="M13 .405l2.8 8.616.028.087h9.151l-7.33 5.325-.073.054.028.086 2.8 8.617-7.33-5.326-.074-.053-.073.053-7.33 5.326 2.8-8.617.027-.086-.073-.054-7.33-5.325h9.151l.028-.087L13 .405z" fill="url(#paint0_linear)"/><path d="M13 .405l2.8 8.616.028.087h9.151l-7.33 5.325-.073.054.028.086 2.8 8.617-7.33-5.326-.074-.053-.073.053-7.33 5.326 2.8-8.617.027-.086-.073-.054-7.33-5.325h9.151l.028-.087L13 .405z" stroke="#8E8E8E" stroke-width=".25"/><defs><linearGradient id="paint0_linear" x1="12.681" y1="0" x2="12.681" y2="112.5" gradientUnits="userSpaceOnUse"><stop stop-color="#FFB03A"/><stop offset="0" stop-color="#FFC800"/><stop offset="1" stop-color="#BB570F"/></linearGradient></defs></svg>