<svg width="36" height="36" fill="none" xmlns="http://www.w3.org/2000/svg"><circle cx="18" cy="18" r="18" fill="#C4C4C4"/><circle cx="18" cy="18" r="18" fill="url(#paint0_linear)"/><path d="M8.688 11a1.71 1.71 0 00-.633.121l9.562 8.507c.416.37.832.37 1.248 0l9.58-8.507a1.71 1.71 0 00-.633-.121H8.688zm-1.67 1.441a1.7 1.7 0 00-.018.226v11.666C7 25.257 7.753 26 8.688 26h19.124c.935 0 1.688-.743 1.688-1.667V12.667a1.68 1.68 0 00-.018-.226L19.99 20.87a2.65 2.65 0 01-3.498 0l-9.474-8.43z" fill="#fff"/><defs><linearGradient id="paint0_linear" x1="17.559" y1="0" x2="17.559" y2="77.5" gradientUnits="userSpaceOnUse"><stop stop-color="#FFB03A"/><stop offset="0" stop-color="#FFC800"/><stop offset="1" stop-color="#BB570F"/></linearGradient></defs></svg>