<svg width="36" height="36" fill="none" xmlns="http://www.w3.org/2000/svg"><circle cx="18" cy="18" r="18" fill="#C4C4C4"/><circle cx="18" cy="18" r="18" fill="url(#paint0_linear)"/><path fill-rule="evenodd" clip-rule="evenodd" d="M24.753 20.63l3.927 2.018c.563.29.81.903.589 1.463-1.126 2.845-4.424 4.346-7.526 3.299-6.353-2.145-11.063-6.5-13.382-12.375-1.132-2.87.491-5.92 3.567-6.96.605-.205 1.269.023 1.582.544l2.181 3.631c.341.568.261 1.242-.205 1.727l-1.833 1.906c1.304 2.938 3.996 5.427 7.172 6.633l2.062-1.695a1.702 1.702 0 011.866-.19z" fill="#fff"/><defs><linearGradient id="paint0_linear" x1="17.559" y1="0" x2="17.559" y2="97" gradientUnits="userSpaceOnUse"><stop stop-color="#FFB03A"/><stop offset="0" stop-color="#FFC800"/><stop offset="1" stop-color="#BB570F"/></linearGradient></defs></svg>