<svg width="25" height="24" fill="none" xmlns="http://www.w3.org/2000/svg"><path d="M13.408 0h.468c.057.023.115.042.175.055 1.128.16 2.255.326 3.384.474.726.094 1.453.204 2.184.238.849.04 1.701 0 2.552.005.899.005 1.558.547 1.782 1.443a.594.594 0 00.048.106v19.68a.237.237 0 00-.037.06c-.261.981-.909 1.49-1.894 1.492-.82 0-1.641 0-2.46.007-.914.008-1.829-.024-2.74.047-1.018.078-2.029.253-3.043.382-.364.047-.692-.05-.997-.264a.711.711 0 00-.379-.13c-1.093-.008-2.186.003-3.28 0a1.782 1.782 0 01-1.774-1.57c-.056-.412-.025-.836-.026-1.254a.195.195 0 01.082-.125c.275-.2.554-.392.83-.589.194-.14.386-.281.618-.451 0 .428-.005.797 0 1.165.014.797.588 1.496 1.353 1.572.565.056 1.139.013 1.708.037.242.01.313-.061.312-.318-.008-2.907-.004-5.818-.002-8.726.002-3.618.005-7.235.009-10.853 0-.191-.04-.271-.245-.265-.484.016-.968.003-1.453.008-1.004.01-1.688.719-1.688 1.753v2.9c0 .075-.007.15-.013.245-.5-.354-.977-.688-1.448-1.031-.042-.031-.062-.123-.062-.188-.002-1.096-.009-2.191.004-3.287.01-.833.554-1.543 1.338-1.74.262-.065.54-.076.812-.08.898-.01 1.797-.005 2.695-.011.078 0 .198-.018.227-.07.219-.389.566-.584.96-.717zm3.167 12.197c-.003-.565-.129-1.04-.453-1.44-.515-.642-1.322-.647-1.843-.02-.625.752-.622 2.069.007 2.812.504.597 1.26.616 1.782.034.36-.401.5-.896.507-1.386z" fill="#202020"/><path d="M10.9 12.4l-.758-.681a162.87 162.87 0 00-3.227-2.856c-.16-.137-.65-.554-1.116-.276-.488.29-.515 1.105-.524 1.374-.015.468-.012.926-.008 1.412v.144H4.5c-.89.003-1.729.005-2.568-.006H1.89c-1.143 0-1.775.6-1.88 1.781-.044.485.065.92.313 1.258.334.453.896.697 1.624.706.836.01 1.669.008 2.55.006h.773v.25c-.002.532-.005.99.007 1.461.022.797.29 1.122.512 1.255.102.062.22.094.34.094.187 0 .423-.08.702-.318a211.716 211.716 0 003.247-2.86l.823-.736c.404-.363.49-.745.49-1.002 0-.256-.085-.64-.49-1.006z" fill="#202020"/></svg>