<svg width="20" height="22" fill="none" xmlns="http://www.w3.org/2000/svg"><path d="M1.114 19.44a1.126 1.126 0 01-.788-.32A1.094 1.094 0 010 18.345v-1.572a1.878 1.878 0 01.701-1.477 30.316 30.316 0 015.455-3.452.075.075 0 00.04-.067v-1.751a4.227 4.227 0 01-.516-1.37c-.278-.085-.526-.527-.76-1.346-.215-.748-.229-1.233 0-1.482a.493.493 0 01.34-.17 3.724 3.724 0 01-.113-.45 3.984 3.984 0 010-1.825 3.964 3.964 0 011.086-1.878c.294-.316.627-.593.99-.827.3-.208.629-.373.976-.491.286-.096.584-.152.885-.166a3.72 3.72 0 012.235.467c.435.226.804.56 1.072.967.324.069.61.25.809.512.514.644.646 1.735.394 3.241a3.715 3.715 0 01-.114.45.497.497 0 01.341.17c.21.25.207.734 0 1.482-.227.817-.485 1.259-.763 1.346-.091.475-.265.93-.514 1.347v1.347a4.805 4.805 0 00-.786 4.027l-2.901 2.87a2.412 2.412 0 00-.663 1.193h-7.08zm17.89-7.587a3.309 3.309 0 01.32 4.367 3.396 3.396 0 01-1.992 1.264 3.435 3.435 0 01-2.347-.331l-.981.967.423.418a.869.869 0 01.292.622.854.854 0 01-.258.637.88.88 0 01-.647.252.89.89 0 01-.63-.29l-.424-.418-.77.76.424.417a.862.862 0 010 1.228.887.887 0 01-1.246 0l-.421-.416-.631-.621-.12-.124a.862.862 0 010-1.228l3.62-3.569a3.3 3.3 0 01-.306-2.3 3.339 3.339 0 011.287-1.942 3.427 3.427 0 014.403.307h.005zm-1.427 1.396a1.384 1.384 0 00-1.486-.281 1.36 1.36 0 00-.61.496 1.334 1.334 0 000 1.492 1.384 1.384 0 002.095.215 1.347 1.347 0 00.41-.961 1.33 1.33 0 00-.41-.96z" fill="#fff"/></svg>