<svg width="22" height="15" fill="none" xmlns="http://www.w3.org/2000/svg"><path fill-rule="evenodd" clip-rule="evenodd" d="M16.228.366c.845.13 1.56.91 1.658 1.073l1.334 2.439h2.048c.195 0 .39.163.39.39v.846c0 .227-.195.423-.39.423h-1.17l.617.552.586 2.57c0 1.918.032 3.804.032 5.69a.652.652 0 01-.65.651h-2.83c-.325 0-.617-.293-.617-.65v-.748H4.423v.748c0 .357-.293.65-.618.65H.975c-.357 0-.617-.293-.617-.65V8.659l.585-2.57.618-.552H.391C.194 5.537 0 5.34 0 5.114v-.846c0-.227.195-.39.39-.39h2.05l1.333-2.439c.098-.163.813-.943 1.659-1.073 3.317-.488 7.48-.488 10.797 0zM5.56 8.95H2.406a.445.445 0 00-.455.455v.911c0 .26.195.455.455.455h3.155c.228 0 .423-.195.423-.455v-.91c0-.26-.195-.456-.423-.456zm10.537 0h3.154c.26 0 .455.195.455.455v.911c0 .26-.195.455-.455.455h-3.154c-.228 0-.423-.195-.423-.455v-.91c0-.26.195-.456.423-.456z" fill="#fff"/></svg>