<svg width="51" height="36" fill="none" xmlns="http://www.w3.org/2000/svg"><path d="M49.386 5.518c-.578-2.167-2.265-3.889-4.423-4.473C41.073 0 25.45 0 25.45 0S9.842 0 5.952 1.06A6.294 6.294 0 001.53 5.519C.496 9.452.496 17.675.496 17.675s0 8.223 1.049 12.157c.577 2.168 2.264 3.889 4.422 4.473C9.842 35.35 25.45 35.35 25.45 35.35s15.607 0 19.498-1.06c2.143-.584 3.845-2.306 4.422-4.473 1.05-3.935 1.05-12.157 1.05-12.157s.015-8.208-1.033-12.142z" fill="red"/><path d="M20.45 25.253l12.993-7.577-12.994-7.578v15.155z" fill="#fff"/></svg>